<?xml version="1.0" encoding="utf-8"?>
<!-- Generator: Adobe Illustrator 19.1.0, SVG Export Plug-In . SVG Version: 6.00 Build 0)  -->
<svg version="1.1" id="Capa_1" xmlns="http://www.w3.org/2000/svg" xmlns:xlink="http://www.w3.org/1999/xlink" x="0px" y="0px"
	 viewBox="-349 182.7 324.4 319.3" style="enable-background:new -349 182.7 324.4 319.3;" xml:space="preserve">
<style type="text/css">
	.st0{fill:#00BCD4;stroke:#00BCD4;}
	.st1{fill:#FFFFFF;}
	.st2{fill:#00BCD4;}
</style>
<path class="st0" d="M-114.5,386c-5.5,0-10.1,4.4-10.1,9.8c0,5.4,4.5,9.8,10.1,9.8c5.5,0,10.1-4.4,10.1-9.8
	C-104.4,390.5-108.9,386-114.5,386z"/>
<path class="st0" d="M-83.6,386.2c1.4,0,2.6-1.1,2.6-2.5v-4.8c0-1.4-1.2-2.5-2.6-2.5s-2.6,1.1-2.6,2.5v4.8
	C-86.1,385-85,386.2-83.6,386.2z"/>
<path class="st0" d="M-260.9,386c-5.5,0-10.1,4.4-10.1,9.8c0,5.4,4.5,9.8,10.1,9.8c5.5,0,10.1-4.4,10.1-9.8
	C-250.8,390.5-255.3,386-260.9,386z"/>
<path class="st0" d="M-110.6,325.2h-22.6c-1.5,0-2.8,1.2-2.8,2.7V348c0,1.5,1.2,2.7,2.8,2.7h38.7c1.5,0,2.8-1.2,2.8-2.7l-12.5-20.2
	C-105.2,326-106.4,325.2-110.6,325.2z"/>
<path class="st1" d="M-186.8,188.2c-85.1,0-154.1,69-154.1,154.1s69,154.1,154.1,154.1s154.1-69,154.1-154.1
	S-101.7,188.2-186.8,188.2z"/>
<g>
	<path class="st2" d="M-230.5,309.9h-45.9c-1.2,0-2.1,0.9-2.1,2.1v17.4c0,1.2,0.9,2.1,2.1,2.1h45.9c1.2,0,2.1-0.9,2.1-2.1v-17.4
		C-228.4,310.9-229.3,309.9-230.5,309.9z"/>
	<path class="st2" d="M-186.8,188.2c-85.1,0-154.1,69-154.1,154.1s69,154.1,154.1,154.1s154.1-69,154.1-154.1
		S-101.7,188.2-186.8,188.2z M-253.1,399.4c-9.8,0-17.7-7.9-17.7-17.7c0-9.8,7.9-17.7,17.7-17.7c9.8,0,17.7,7.9,17.7,17.7
		C-235.4,391.6-243.3,399.4-253.1,399.4z M-197.4,399.4c-9.8,0-17.7-7.9-17.7-17.7c0-9.8,7.9-17.7,17.7-17.7
		c9.8,0,17.7,7.9,17.7,17.7C-179.7,391.6-187.7,399.4-197.4,399.4z M-136.1,399.4c-9.8,0-17.7-7.9-17.7-17.7
		c0-9.8,7.9-17.7,17.7-17.7c9.8,0,17.7,7.9,17.7,17.7C-118.4,391.6-126.3,399.4-136.1,399.4z M-71.6,388.9h-16.7h-1h-21.3
		c-0.9,0-1.7-0.4-2.2-1.1c-0.6-0.7-0.8-1.6-0.6-2.4c0.3-1.3,0.4-2.7,0.4-4c0.4-13.1-11.5-23.1-23.1-23.1c-11.6,0-22.8,10-23.1,23.1
		c0,1.3,0.1,2.7,0.4,4c0.2,0.9-0.1,1.7-0.6,2.4c-0.6,0.7-1.4,1.1-2.2,1.1h-10.3c-0.9,0-1.7-0.4-2.2-1.1c-0.6-0.7-0.8-1.6-0.6-2.4
		c0.3-1.3,0.4-2.7,0.4-4c0.4-12.9-11.5-23.1-23.1-23.1c-11.6,0-23.3,10.2-23.1,23.1c0,1.3,0.1,2.7,0.4,4c0.2,0.9-0.1,1.7-0.6,2.4
		c-0.6,0.7-1.4,1.1-2.2,1.1h-4.5c-0.9,0-1.7-0.4-2.2-1.1c-0.6-0.7-0.8-1.6-0.6-2.4c0.3-1.3,0.4-2.7,0.4-4
		c-0.1-12.9-11.5-23.1-23.1-23.1c-11.6,0-23.1,9-23.1,23.1c0,1.3,0.1,2.7,0.4,4c0.2,0.9-0.1,1.7-0.6,2.4c-0.6,0.7-1.4,1.1-2.2,1.1
		h-14.5c-1.6,0-2.9-1.3-2.9-2.9v-7.3h-3.3c-1.6,0-2.9-1.3-2.9-2.9v-18.2c0-1.6,1.3-2.9,2.9-2.9h3.3v-40.4h-3.3
		c-1.6,0-2.9-1.3-2.9-2.9v-11.7c0-1.6,1.3-2.9,2.9-2.9h6.2h0.3h77.8c1.6,0,2.9,1.3,2.9,2.9v16.7h56.7v-22.9c0-1.6,1.3-2.9,2.9-2.9
		h16.8c1.6,0,2.9,1.3,2.9,2.9v22.9h12.5v-36.9c0-1.6,1.3-2.9,2.9-2.9h18c1.6,0,2.9,1.3,2.9,2.9v36.9h8.3c1.6,0,2.9,1.3,2.9,2.9v40.1
		l16.2,25.1c0.6,0.9,0.6,2,0.1,3C-69.5,388.4-70.5,388.9-71.6,388.9z"/>
</g>
</svg>
