<?xml version="1.0" encoding="utf-8"?>
<!-- Generator: Adobe Illustrator 19.1.0, SVG Export Plug-In . SVG Version: 6.00 Build 0)  -->
<svg version="1.1" id="Capa_1" xmlns="http://www.w3.org/2000/svg" xmlns:xlink="http://www.w3.org/1999/xlink" x="0px" y="0px"
	 viewBox="-349 182.7 324.4 319.3" style="enable-background:new -349 182.7 324.4 319.3;" xml:space="preserve">
<style type="text/css">
	.st0{fill:#00BCD4;stroke:#00BCD4;}
	.st1{fill:#FFFFFF;}
	.st2{fill:#00BCD4;}
</style>
<path class="st0" d="M-1221.9,1414.7c-5.5,0-10.1,4.4-10.1,9.8s4.5,9.8,10.1,9.8c5.5,0,10.1-4.4,10.1-9.8
	S-1216.3,1414.7-1221.9,1414.7z"/>
<path class="st0" d="M-1191,1414.8c1.4,0,2.6-1.1,2.6-2.5v-4.8c0-1.4-1.2-2.5-2.6-2.5s-2.6,1.1-2.6,2.5v4.8
	C-1193.5,1413.7-1192.4,1414.8-1191,1414.8z"/>
<path class="st0" d="M-1368.3,1414.7c-5.5,0-10.1,4.4-10.1,9.8s4.5,9.8,10.1,9.8c5.5,0,10.1-4.4,10.1-9.8
	C-1358.2,1419.1-1362.7,1414.7-1368.3,1414.7z"/>
<path class="st0" d="M-1218,1353.8h-22.6c-1.5,0-2.8,1.2-2.8,2.7v20.2c0,1.5,1.2,2.7,2.8,2.7h38.7c1.5,0,2.8-1.2,2.8-2.7l-12.5-20.2
	C-1212.6,1354.7-1213.8,1353.8-1218,1353.8z"/>
<path class="st1" d="M-1294.2,1216.9c-85.1,0-154.1,69-154.1,154.1s69,154.1,154.1,154.1s154.1-69,154.1-154.1
	S-1209.1,1216.9-1294.2,1216.9z"/>
<g>
	<path class="st2" d="M-1337.9,1338.6h-45.9c-1.2,0-2.1,0.9-2.1,2.1v17.4c0,1.2,0.9,2.1,2.1,2.1h45.9c1.2,0,2.1-0.9,2.1-2.1v-17.4
		C-1335.8,1339.6-1336.7,1338.6-1337.9,1338.6z"/>
	<path class="st2" d="M-1294.2,1216.9c-85.1,0-154.1,69-154.1,154.1s69,154.1,154.1,154.1s154.1-69,154.1-154.1
		S-1209.1,1216.9-1294.2,1216.9z M-1360.5,1428.1c-9.8,0-17.7-7.9-17.7-17.7c0-9.8,7.9-17.7,17.7-17.7c9.8,0,17.7,7.9,17.7,17.7
		C-1342.8,1420.2-1350.7,1428.1-1360.5,1428.1z M-1304.8,1428.1c-9.8,0-17.7-7.9-17.7-17.7c0-9.8,7.9-17.7,17.7-17.7
		c9.8,0,17.7,7.9,17.7,17.7S-1295.1,1428.1-1304.8,1428.1z M-1243.5,1428.1c-9.8,0-17.7-7.9-17.7-17.7c0-9.8,7.9-17.7,17.7-17.7
		s17.7,7.9,17.7,17.7S-1233.7,1428.1-1243.5,1428.1z M-1179,1417.5h-16.7h-1h-21.3c-0.9,0-1.7-0.4-2.2-1.1c-0.6-0.7-0.8-1.6-0.6-2.4
		c0.3-1.3,0.4-2.7,0.4-4c0.4-13.1-11.5-23.1-23.1-23.1c-11.6,0-22.8,10-23.1,23.1c0,1.3,0.1,2.7,0.4,4c0.2,0.9-0.1,1.7-0.6,2.4
		c-0.6,0.7-1.4,1.1-2.2,1.1h-10.3c-0.9,0-1.7-0.4-2.2-1.1c-0.6-0.7-0.8-1.6-0.6-2.4c0.3-1.3,0.4-2.7,0.4-4
		c0.4-12.9-11.5-23.1-23.1-23.1s-23.3,10.2-23.1,23.1c0,1.3,0.1,2.7,0.4,4c0.2,0.9-0.1,1.7-0.6,2.4c-0.6,0.7-1.4,1.1-2.2,1.1h-4.5
		c-0.9,0-1.7-0.4-2.2-1.1c-0.6-0.7-0.8-1.6-0.6-2.4c0.3-1.3,0.4-2.7,0.4-4c-0.1-12.9-11.5-23.1-23.1-23.1s-22.6,9.8-23.1,23.1
		c-0.1,1.3,0.1,2.7,0.4,4c0.2,0.9-0.1,1.7-0.6,2.4c-0.6,0.7-1.4,1.1-2.2,1.1h-14.5c-1.6,0-2.9-1.3-2.9-2.9v-7.3h-3.3
		c-1.6,0-2.9-1.3-2.9-2.9v-18.2c0-1.6,1.3-2.9,2.9-2.9h3.3v-40.4h-3.3c-1.6,0-2.9-1.3-2.9-2.9v-11.7c0-1.6,1.3-2.9,2.9-2.9h6.2h0.3
		h77.8c1.6,0,2.9,1.3,2.9,2.9v16.7h56.7v-22.9c0-1.6,1.3-2.9,2.9-2.9h16.8c1.6,0,2.9,1.3,2.9,2.9v22.9h12.5v-36.9
		c0-1.6,1.3-2.9,2.9-2.9h18c1.6,0,2.9,1.3,2.9,2.9v36.9h8.3c1.6,0,2.9,1.3,2.9,2.9v40.1l16.2,25.1c0.6,0.9,0.6,2,0.1,3
		C-1176.9,1417-1177.9,1417.5-1179,1417.5z"/>
</g>
</svg>
